<?xml version="1.0" encoding="UTF-8"?>
<!-- Do not edit this file with editors other than diagrams.net -->
<!DOCTYPE svg PUBLIC "-//W3C//DTD SVG 1.1//EN" "http://www.w3.org/Graphics/SVG/1.1/DTD/svg11.dtd">
<svg xmlns="http://www.w3.org/2000/svg" xmlns:xlink="http://www.w3.org/1999/xlink" version="1.1" width="350px" height="350px" viewBox="-0.5 -0.5 350 350" content="&lt;mxfile host=&quot;app.diagrams.net&quot; modified=&quot;2023-07-26T02:20:40.564Z&quot; agent=&quot;Mozilla/5.0 (X11; Linux x86_64; rv:109.0) Gecko/20100101 Firefox/110.0&quot; etag=&quot;IK68t6_zPd6co8TKGawK&quot; version=&quot;21.3.2&quot; type=&quot;device&quot;&gt;&#xA;  &lt;diagram name=&quot;Página-1&quot; id=&quot;piX77LLvFgjzti1kvKAJ&quot;&gt;&#xA;    &lt;mxGraphModel dx=&quot;3420&quot; dy=&quot;988&quot; grid=&quot;1&quot; gridSize=&quot;10&quot; guides=&quot;1&quot; tooltips=&quot;1&quot; connect=&quot;1&quot; arrows=&quot;1&quot; fold=&quot;1&quot; page=&quot;1&quot; pageScale=&quot;1&quot; pageWidth=&quot;827&quot; pageHeight=&quot;1169&quot; math=&quot;0&quot; shadow=&quot;0&quot;&gt;&#xA;      &lt;root&gt;&#xA;        &lt;mxCell id=&quot;0&quot; /&gt;&#xA;        &lt;mxCell id=&quot;1&quot; parent=&quot;0&quot; /&gt;&#xA;        &lt;mxCell id=&quot;meZxqM0MW4y0p0MUOe9Q-1&quot; value=&quot;&quot; style=&quot;sketch=0;outlineConnect=0;fontColor=#232F3E;gradientColor=none;fillColor=#fc814aff;strokeColor=none;dashed=0;verticalLabelPosition=bottom;verticalAlign=top;align=center;html=1;fontSize=12;fontStyle=0;aspect=fixed;pointerEvents=1;shape=mxgraph.aws4.textract_analyze_lending;&quot; vertex=&quot;1&quot; parent=&quot;1&quot;&gt;&#xA;          &lt;mxGeometry x=&quot;-480&quot; y=&quot;40&quot; width=&quot;348&quot; height=&quot;348&quot; as=&quot;geometry&quot; /&gt;&#xA;        &lt;/mxCell&gt;&#xA;      &lt;/root&gt;&#xA;    &lt;/mxGraphModel&gt;&#xA;  &lt;/diagram&gt;&#xA;&lt;/mxfile&gt;&#xA;"><defs/><g><rect x="0" y="0" width="348" height="348" fill="none" stroke="none" pointer-events="all"/><path d="M 79.09 253.09 C 113.79 253.05 142.32 224.52 142.36 189.82 C 142.32 155.12 113.79 126.59 79.09 126.55 C 44.39 126.59 15.86 155.12 15.82 189.82 C 15.86 224.52 44.39 253.05 79.09 253.09 Z M 145.04 233.39 C 139.14 242.26 131.54 249.87 122.66 255.76 L 162.82 295.91 C 168.8 301.88 179.2 301.88 185.18 295.91 C 188.17 292.92 189.82 288.95 189.82 284.73 C 189.83 280.53 188.16 276.49 185.18 273.54 L 145.04 233.39 Z M 79.09 268.91 C 35.48 268.91 0 233.43 0 189.82 C 0 146.21 35.48 110.73 79.09 110.73 C 122.7 110.73 158.18 146.21 158.18 189.82 C 158.17 199.69 156.3 209.47 152.66 218.65 L 196.37 262.35 C 202.35 268.33 205.64 276.28 205.64 284.73 C 205.66 293.12 202.32 301.18 196.37 307.09 C 190.4 313.07 182.45 316.36 174 316.36 C 165.55 316.36 157.6 313.07 151.63 307.09 L 107.93 263.39 C 98.74 267.03 88.96 268.89 79.09 268.91 Z M 213.55 189.82 L 268.91 189.82 L 268.91 174 L 213.55 174 L 213.55 189.82 Z M 174 150.27 L 268.91 150.27 L 268.91 134.45 L 174 134.45 L 174 150.27 Z M 221.45 268.91 L 268.91 268.91 L 268.91 253.09 L 221.45 253.09 L 221.45 268.91 Z M 197.73 229.36 L 268.91 229.36 L 268.91 213.55 L 197.73 213.55 L 197.73 229.36 Z M 253.09 94.91 L 281.45 94.91 L 253.09 66.55 L 253.09 94.91 Z M 306.14 97.23 C 307.62 98.71 308.45 100.72 308.45 102.82 L 308.45 340.09 C 308.45 344.43 304.89 348 300.55 348 L 79.09 348 C 74.75 348 71.18 344.43 71.18 340.09 L 71.18 284.73 L 87 284.73 L 87 332.18 L 292.64 332.18 L 292.64 110.73 L 245.18 110.73 C 240.84 110.73 237.27 107.16 237.27 102.82 L 237.27 55.36 L 87 55.36 L 87 94.91 L 71.18 94.91 L 71.18 47.45 C 71.18 43.11 74.75 39.55 79.09 39.55 L 245.18 39.55 C 247.29 39.55 249.29 40.38 250.77 41.86 L 306.14 97.23 Z M 348 79.09 L 348 300.55 C 348 304.89 344.43 308.45 340.09 308.45 L 324.27 308.45 L 324.27 292.64 L 332.18 292.64 L 332.18 82.37 L 265.63 15.82 L 126.55 15.82 L 126.55 23.73 L 110.73 23.73 L 110.73 7.91 C 110.73 3.57 114.29 0 118.64 0 L 268.91 0 C 271.01 0 273.02 0.83 274.5 2.32 L 345.68 73.5 C 347.17 74.98 348 76.99 348 79.09 Z" fill="#fc814aff" stroke="none" pointer-events="all"/></g></svg>