<?xml version="1.0" encoding="UTF-8"?>
<!-- Do not edit this file with editors other than diagrams.net -->
<!DOCTYPE svg PUBLIC "-//W3C//DTD SVG 1.1//EN" "http://www.w3.org/Graphics/SVG/1.1/DTD/svg11.dtd">
<svg xmlns="http://www.w3.org/2000/svg" xmlns:xlink="http://www.w3.org/1999/xlink" version="1.1" width="381px" height="381px" viewBox="-0.5 -0.5 381 381" content="&lt;mxfile host=&quot;app.diagrams.net&quot; modified=&quot;2023-07-26T02:21:50.636Z&quot; agent=&quot;Mozilla/5.0 (X11; Linux x86_64; rv:109.0) Gecko/20100101 Firefox/110.0&quot; etag=&quot;xwsUyH5cs_0sU4qj1hSl&quot; version=&quot;21.3.2&quot; type=&quot;device&quot;&gt;&#xA;  &lt;diagram name=&quot;Página-1&quot; id=&quot;piX77LLvFgjzti1kvKAJ&quot;&gt;&#xA;    &lt;mxGraphModel dx=&quot;2593&quot; dy=&quot;988&quot; grid=&quot;1&quot; gridSize=&quot;10&quot; guides=&quot;1&quot; tooltips=&quot;1&quot; connect=&quot;1&quot; arrows=&quot;1&quot; fold=&quot;1&quot; page=&quot;1&quot; pageScale=&quot;1&quot; pageWidth=&quot;827&quot; pageHeight=&quot;1169&quot; math=&quot;0&quot; shadow=&quot;0&quot;&gt;&#xA;      &lt;root&gt;&#xA;        &lt;mxCell id=&quot;0&quot; /&gt;&#xA;        &lt;mxCell id=&quot;1&quot; parent=&quot;0&quot; /&gt;&#xA;        &lt;mxCell id=&quot;meZxqM0MW4y0p0MUOe9Q-12&quot; value=&quot;&quot; style=&quot;sketch=0;outlineConnect=0;fontColor=#232F3E;gradientColor=none;fillColor=#fc814a;strokeColor=none;dashed=0;verticalLabelPosition=bottom;verticalAlign=top;align=center;html=1;fontSize=12;fontStyle=0;aspect=fixed;pointerEvents=1;shape=mxgraph.aws4.sagemaker_shadow_testing;&quot; vertex=&quot;1&quot; parent=&quot;1&quot;&gt;&#xA;          &lt;mxGeometry x=&quot;390&quot; y=&quot;30&quot; width=&quot;380&quot; height=&quot;380&quot; as=&quot;geometry&quot; /&gt;&#xA;        &lt;/mxCell&gt;&#xA;      &lt;/root&gt;&#xA;    &lt;/mxGraphModel&gt;&#xA;  &lt;/diagram&gt;&#xA;&lt;/mxfile&gt;&#xA;"><defs/><g><rect x="0" y="0" width="380" height="380" fill="none" stroke="none" pointer-events="all"/><path d="M 188.94 298.09 L 160.65 269.81 L 148.51 281.95 L 182.86 316.3 C 184.54 317.98 186.74 318.82 188.94 318.82 C 191.13 318.82 193.33 317.98 195.01 316.3 L 263.71 247.6 L 251.57 235.46 Z M 357.15 331.13 L 250.44 177.73 C 249.45 176.29 248.9 174.58 248.9 172.82 L 248.9 44 C 248.9 41.73 249.81 39.54 251.42 37.93 C 253.03 36.32 255.22 35.42 257.49 35.42 L 257.64 35.42 C 262.38 35.42 266.23 31.57 266.23 26.83 C 266.23 22.09 262.38 18.24 257.64 18.24 L 171.76 18.24 C 167.02 18.24 163.17 22.09 163.17 26.83 C 163.17 31.57 167.02 35.42 171.76 35.42 C 176.5 35.42 180.35 39.26 180.35 44 L 180.35 172.82 C 180.35 174.58 179.81 176.29 178.81 177.73 L 72.1 331.13 C 67.87 337.2 67.41 344.74 70.82 351.29 C 74.24 357.84 80.71 361.76 88.11 361.76 L 341.15 361.76 C 348.54 361.76 355 357.84 358.43 351.29 C 361.85 344.74 361.37 337.2 357.15 331.13 Z M 53.89 329.21 C 54.93 326.42 56.31 323.77 57.99 321.32 L 103.06 256.55 L 103.06 61.18 C 103.06 58.9 103.96 56.72 105.57 55.11 C 107.18 53.5 109.37 52.59 111.64 52.59 C 114.71 52.59 117.55 50.96 119.08 48.3 C 120.61 45.64 120.61 42.37 119.08 39.71 C 117.55 37.05 114.71 35.42 111.64 35.42 L 25.76 35.42 C 22.7 35.42 19.86 37.05 18.33 39.71 C 16.79 42.37 16.79 45.64 18.33 48.3 C 19.86 50.96 22.7 52.59 25.76 52.59 C 28.04 52.59 30.23 53.5 31.84 55.11 C 33.45 56.72 34.35 58.9 34.35 61.18 L 34.35 303.39 C 34.42 315.37 42.38 325.88 53.89 329.21 Z M 373.65 359.24 C 367.31 371.39 354.85 378.94 341.15 378.94 L 88.11 378.94 C 74.41 378.94 61.95 371.39 55.61 359.25 C 53.48 355.18 52.24 350.84 51.73 346.46 C 31.7 342.03 17.18 323.95 17.18 303.39 L 17.18 68.3 C 7.18 64.75 0 55.2 0 44 C 0 29.8 11.56 18.24 25.76 18.24 L 111.64 18.24 C 125.85 18.24 137.41 29.8 137.41 44 C 137.41 55.2 130.23 64.75 120.23 68.3 L 120.23 231.86 L 163.17 170.14 L 163.17 51.12 C 153.17 47.58 146 38.03 146 26.83 C 146 12.62 157.55 1.06 171.76 1.06 L 257.64 1.06 C 271.84 1.06 283.4 12.62 283.4 26.83 C 283.4 38.08 276.15 47.66 266.08 51.18 L 266.08 170.14 L 371.25 321.32 C 379.08 332.57 380 347.1 373.65 359.24 Z M 43.02 177.9 L 56.62 164.3 L 43.02 150.68 L 55.16 138.54 L 68.76 152.15 L 82.37 138.54 L 94.51 150.68 L 80.91 164.3 L 94.51 177.9 L 82.37 190.04 L 68.76 176.44 L 55.16 190.04 Z" fill="#fc814a" stroke="none" pointer-events="all"/></g></svg>