<?xml version="1.0" encoding="UTF-8"?>
<!-- Do not edit this file with editors other than diagrams.net -->
<!DOCTYPE svg PUBLIC "-//W3C//DTD SVG 1.1//EN" "http://www.w3.org/Graphics/SVG/1.1/DTD/svg11.dtd">
<svg xmlns="http://www.w3.org/2000/svg" xmlns:xlink="http://www.w3.org/1999/xlink" version="1.1" width="371px" height="371px" viewBox="-0.5 -0.5 371 371" content="&lt;mxfile host=&quot;app.diagrams.net&quot; modified=&quot;2023-07-26T02:20:57.931Z&quot; agent=&quot;Mozilla/5.0 (X11; Linux x86_64; rv:109.0) Gecko/20100101 Firefox/110.0&quot; etag=&quot;KWbpcMHAYQSCA1L25GXw&quot; version=&quot;21.3.2&quot; type=&quot;device&quot;&gt;&#xA;  &lt;diagram name=&quot;Página-1&quot; id=&quot;piX77LLvFgjzti1kvKAJ&quot;&gt;&#xA;    &lt;mxGraphModel dx=&quot;3420&quot; dy=&quot;988&quot; grid=&quot;1&quot; gridSize=&quot;10&quot; guides=&quot;1&quot; tooltips=&quot;1&quot; connect=&quot;1&quot; arrows=&quot;1&quot; fold=&quot;1&quot; page=&quot;1&quot; pageScale=&quot;1&quot; pageWidth=&quot;827&quot; pageHeight=&quot;1169&quot; math=&quot;0&quot; shadow=&quot;0&quot;&gt;&#xA;      &lt;root&gt;&#xA;        &lt;mxCell id=&quot;0&quot; /&gt;&#xA;        &lt;mxCell id=&quot;1&quot; parent=&quot;0&quot; /&gt;&#xA;        &lt;mxCell id=&quot;meZxqM0MW4y0p0MUOe9Q-7&quot; value=&quot;&quot; style=&quot;sketch=0;outlineConnect=0;fontColor=#232F3E;gradientColor=none;fillColor=#fc814aff;strokeColor=none;dashed=0;verticalLabelPosition=bottom;verticalAlign=top;align=center;html=1;fontSize=12;fontStyle=0;aspect=fixed;pointerEvents=1;shape=mxgraph.aws4.sagemaker_model;&quot; vertex=&quot;1&quot; parent=&quot;1&quot;&gt;&#xA;          &lt;mxGeometry x=&quot;-40&quot; y=&quot;10&quot; width=&quot;370&quot; height=&quot;370&quot; as=&quot;geometry&quot; /&gt;&#xA;        &lt;/mxCell&gt;&#xA;      &lt;/root&gt;&#xA;    &lt;/mxGraphModel&gt;&#xA;  &lt;/diagram&gt;&#xA;&lt;/mxfile&gt;&#xA;"><defs/><g><rect x="0" y="0" width="370" height="370" fill="none" stroke="none" pointer-events="all"/><path d="M 235.06 233.05 C 235.06 237.11 231.75 240.42 227.7 240.42 C 223.63 240.42 220.32 237.11 220.32 233.05 C 220.32 229 223.63 225.68 227.7 225.68 C 231.75 225.68 235.06 229 235.06 233.05 Z M 259.15 83.13 C 255.09 83.13 251.78 79.82 251.78 75.76 C 251.78 71.69 255.09 68.39 259.15 68.39 C 263.21 68.39 266.52 71.69 266.52 75.76 C 266.52 79.82 263.21 83.13 259.15 83.13 Z M 230.57 156.65 C 230.57 160.72 227.26 164.02 223.2 164.02 C 219.14 164.02 215.82 160.72 215.82 156.65 C 215.82 152.59 219.14 149.28 223.2 149.28 C 227.26 149.28 230.57 152.59 230.57 156.65 Z M 269.75 286.98 C 269.75 282.92 273.06 279.61 277.12 279.61 C 281.19 279.61 284.5 282.92 284.5 286.98 C 284.5 291.04 281.19 294.35 277.12 294.35 C 273.06 294.35 269.75 291.04 269.75 286.98 Z M 306.73 245.36 C 304.1 246.83 302.47 249.62 302.47 252.64 L 302.47 304.4 L 242.79 339.69 L 242.79 297.59 L 255.61 297.59 C 259.55 305.54 267.66 311.07 277.12 311.07 C 290.41 311.07 301.22 300.27 301.22 286.98 C 301.22 273.7 290.41 262.89 277.12 262.89 C 265.97 262.89 256.64 270.56 253.92 280.87 L 234.43 280.87 C 229.81 280.87 226.07 284.61 226.07 289.23 L 226.07 349.57 L 222.69 351.58 L 193.36 334.58 L 193.36 117.82 L 217.09 117.82 L 217.09 133.45 C 206.77 136.17 199.11 145.49 199.11 156.65 C 199.11 169.94 209.91 180.74 223.2 180.74 C 236.48 180.74 247.29 169.94 247.29 156.65 C 247.29 147.19 241.76 139.07 233.81 135.14 L 233.81 117.82 L 261.39 117.82 C 266.01 117.82 269.75 114.09 269.75 109.47 L 269.75 97.28 C 277.71 93.34 283.24 85.21 283.24 75.76 C 283.24 62.48 272.43 51.67 259.15 51.67 C 245.87 51.67 235.06 62.48 235.06 75.76 C 235.06 86.92 242.73 96.24 253.03 98.97 L 253.03 101.11 L 193.36 101.11 L 193.36 40.57 L 230.13 18.55 L 306.97 65.39 L 306.97 116.92 C 306.97 119.94 308.59 122.71 311.2 124.2 L 351.91 147.27 L 351.91 173 L 274.88 173 C 270.26 173 266.52 176.75 266.52 181.36 L 266.52 222.44 L 249.21 222.44 C 245.27 214.49 237.16 208.97 227.7 208.97 C 214.41 208.97 203.6 219.77 203.6 233.05 C 203.6 246.33 214.41 257.14 227.7 257.14 C 238.85 257.14 248.17 249.48 250.9 239.16 L 274.88 239.16 C 279.5 239.16 283.24 235.42 283.24 230.8 L 283.24 189.72 L 351.91 189.72 L 351.91 219.93 Z M 128.82 221.19 C 132.88 221.19 136.19 224.5 136.19 228.56 C 136.19 232.62 132.88 235.93 128.82 235.93 C 124.76 235.93 121.45 232.62 121.45 228.56 C 121.45 224.5 124.76 221.19 128.82 221.19 Z M 116.96 89.24 C 116.96 85.18 120.27 81.87 124.33 81.87 C 128.39 81.87 131.7 85.18 131.7 89.24 C 131.7 93.31 128.39 96.62 124.33 96.62 C 120.27 96.62 116.96 93.31 116.96 89.24 Z M 86.76 156.65 C 86.76 160.72 83.45 164.02 79.38 164.02 C 75.33 164.02 72.02 160.72 72.02 156.65 C 72.02 152.59 75.33 149.28 79.38 149.28 C 83.45 149.28 86.76 152.59 86.76 156.65 Z M 130.43 300.46 C 130.43 296.4 133.74 293.09 137.81 293.09 C 141.88 293.09 145.18 296.4 145.18 300.46 C 145.18 304.53 141.88 307.83 137.81 307.83 C 133.74 307.83 130.43 304.53 130.43 300.46 Z M 142.74 351.53 L 63.03 304.38 L 63.03 252.64 C 63.03 249.59 61.38 246.78 58.7 245.31 L 55.71 243.67 L 77.77 243.67 L 77.77 302.71 C 77.77 307.33 81.51 311.07 86.13 311.07 L 116.29 311.07 C 120.23 319.02 128.34 324.55 137.81 324.55 C 151.09 324.55 161.9 313.74 161.9 300.46 C 161.9 287.18 151.09 276.38 137.81 276.38 C 126.66 276.38 117.33 284.04 114.6 294.35 L 94.49 294.35 L 94.49 235.31 C 94.49 230.68 90.74 226.95 86.13 226.95 L 25.31 226.95 L 18.09 222.98 L 18.09 147.27 L 58.79 124.19 C 61.41 122.7 63.03 119.92 63.03 116.91 L 63.03 95.35 L 73.27 95.35 L 73.27 133.45 C 62.97 136.17 55.3 145.49 55.3 156.65 C 55.3 169.94 66.1 180.74 79.38 180.74 C 92.67 180.74 103.48 169.94 103.48 156.65 C 103.48 147.2 97.95 139.08 89.99 135.14 L 89.99 95.35 L 101.13 95.35 C 103.85 105.67 113.17 113.34 124.33 113.34 C 137.62 113.34 148.42 102.53 148.42 89.24 C 148.42 75.96 137.62 65.15 124.33 65.15 C 114.88 65.15 106.75 70.68 102.82 78.63 L 63.03 78.63 L 63.03 65.38 L 139.86 18.54 L 176.64 40.56 L 176.64 137.06 L 126.57 137.06 C 121.96 137.06 118.21 140.8 118.21 145.42 L 118.21 207.04 C 110.26 210.97 104.73 219.1 104.73 228.56 C 104.73 241.84 115.54 252.65 128.82 252.65 C 142.1 252.65 152.91 241.84 152.91 228.56 C 152.91 217.4 145.25 208.08 134.93 205.35 L 134.93 153.78 L 176.64 153.78 L 176.64 331.35 Z M 368.62 142.41 C 368.62 139.4 367 136.62 364.39 135.14 L 323.69 112.06 L 323.69 60.71 C 323.69 57.79 322.16 55.09 319.67 53.57 L 234.52 1.65 C 231.87 0.03 228.55 0.01 225.87 1.6 L 185.01 26.07 L 144.12 1.6 C 141.44 0 138.12 0.02 135.48 1.64 L 50.32 53.55 C 47.84 55.07 46.31 57.77 46.31 60.69 L 46.31 112.04 L 5.6 135.13 C 2.98 136.62 1.37 139.39 1.37 142.4 L 1.38 227.92 C 1.38 230.97 3.03 233.77 5.7 235.24 L 46.31 257.58 L 46.31 309.15 C 46.31 312.1 47.86 314.84 50.41 316.34 L 138.5 368.44 C 141.14 370 144.39 370 147.04 368.43 L 182.26 347.47 L 218.53 368.49 C 219.83 369.24 221.28 369.62 222.72 369.62 C 224.19 369.62 225.66 369.22 226.98 368.45 L 315.08 316.36 C 317.63 314.85 319.19 312.12 319.19 309.16 L 319.19 257.53 L 364.37 232.1 C 367 230.62 368.63 227.83 368.63 224.82 Z" fill="#fc814aff" stroke="none" pointer-events="all"/></g></svg>